<svg id="LOGO_BEC" data-name="LOGO BEC" xmlns="http://www.w3.org/2000/svg" viewBox="0 0 182.66 223.25"><defs><style>.cls-1,.cls-10{fill:#cad0ea;}.cls-1,.cls-2,.cls-3,.cls-4,.cls-5,.cls-6,.cls-7,.cls-8,.cls-9{stroke:#fff;}.cls-1,.cls-14,.cls-2,.cls-3,.cls-4,.cls-5,.cls-6,.cls-7,.cls-8{stroke-linecap:round;stroke-linejoin:round;}.cls-1,.cls-2,.cls-3,.cls-4,.cls-5{stroke-width:8.23px;}.cls-1,.cls-10,.cls-11,.cls-13,.cls-2,.cls-4,.cls-5{fill-rule:evenodd;}.cls-11,.cls-12,.cls-2,.cls-3,.cls-7{fill:#001689;}.cls-13,.cls-15,.cls-4,.cls-8{fill:#d41836;}.cls-5{fill:#5f5f5e;}.cls-14,.cls-6,.cls-9{fill:none;}.cls-6{stroke-width:12.74px;}.cls-7,.cls-8{stroke-width:10.97px;}.cls-9{stroke-miterlimit:10;stroke-width:2.74px;}.cls-14{stroke:#d11d2e;stroke-width:4.25px;}</style></defs><title>BEC LOGO</title><path class="cls-1" d="M125.66,63.09l0,49H114.34l0-27.52a10.81,10.81,0,0,0-3.61-8l14.9-13.55Z"/><path class="cls-2" d="M71.81,73.35V63.09h31.09v5.75h3.17V63.09h19.58l-14.9,13.55A13,13,0,0,0,102,73.35Z"/><rect class="cls-3" x="95.34" y="58.78" width="15.44" height="10.71"/><path class="cls-1" d="M97.35,88.84a8.1,8.1,0,0,0-5.41-2H71.62V75.53h29.31a11.66,11.66,0,0,1,7.82,2.94L97.35,88.84Z"/><path class="cls-4" d="M112,85.58l0,26.69H99.55l0-18.51a6.71,6.71,0,0,0-2.22-4.92l11.41-10.37A9.64,9.64,0,0,1,112,85.58Z"/><path class="cls-5" d="M97.3,95.26v17H71.59l4.31-3.93h8V103a2,2,0,0,0-.62-1.39l.65-.59a2.09,2.09,0,0,1,.68,1.52v5.78h3.87V100a3,3,0,0,0-1-2.19l.63-.57a3.42,3.42,0,0,1,1.1,2.46v8.6h3.52V93l2.51-2.28a6.1,6.1,0,0,1,2,4.53Z"/><path class="cls-2" d="M92.75,93,71.59,112.23l0-23.39s18.41,0,20,.13,3.66,1.68,3.66,1.68Z"/><path class="cls-1" d="M95.26,90.73,71.59,112.27h25.7V94.49A7.38,7.38,0,0,0,95.26,90.73Z"/><line class="cls-6" x1="58.75" y1="177.29" x2="43.58" y2="177.29"/><line class="cls-6" x1="53.84" y1="190.19" x2="38.68" y2="190.19"/><line class="cls-6" x1="56.54" y1="183.7" x2="32.59" y2="183.7"/><path class="cls-7" d="M42.68,143.28h6.91a17.31,17.31,0,0,1,4.88.51,4,4,0,0,1,2.4,2.06q.78,1.56.24,5a6.18,6.18,0,0,1-1.25,3.26,6.13,6.13,0,0,1-3.11,1.41,4.2,4.2,0,0,1,3,1.8,6.49,6.49,0,0,1,.25,3.86l-.4,2.47a10.88,10.88,0,0,1-1.25,4,4.09,4.09,0,0,1-2.24,1.77,21,21,0,0,1-5.61.48h-8Zm4.61,14.63-1.18,7.45a3.25,3.25,0,0,0,1.94-.46,3.68,3.68,0,0,0,.72-2l.39-2.49c.19-1.14.17-1.83,0-2.07S48.31,157.94,47.29,157.91Zm1.59-10.07-.94,5.92.7,0a1.59,1.59,0,0,0,1.38-.5,8.94,8.94,0,0,0,.73-2.87,4.56,4.56,0,0,0,0-1.75.9.9,0,0,0-.5-.64A5.48,5.48,0,0,0,48.88,147.84Z"/><path class="cls-7" d="M74.81,143.28l-.25,26.64H67.48l.38-4.79H65.38l-1.17,4.79H57.05l7.75-26.64Zm-6.38,17.13q.19-4.53.72-11.19-2.28,7.65-3.11,11.19Z"/><path class="cls-7" d="M93.6,143.28l-.85,5.33H88.64l-3.37,21.31H78.34l3.37-21.31h-4.1l.85-5.33Z"/><path class="cls-7" d="M96.73,143.28h11.55l-.84,5.33h-4.63l-.8,5h4.33l-.8,5.07h-4.33l-.93,5.86h5.09l-.85,5.33h-12Z"/><path class="cls-7" d="M112.28,143.28h4.91a35.62,35.62,0,0,1,6.58.38,3.65,3.65,0,0,1,2.52,1.93q.85,1.56.31,5a8.83,8.83,0,0,1-1.43,4.18,4.86,4.86,0,0,1-3.25,1.29,4.33,4.33,0,0,1,2.55,1.36,3.45,3.45,0,0,1,.63,1.57,25,25,0,0,1-.45,3.94l-1.12,7H117.1l1.4-8.85a5.85,5.85,0,0,0,.08-2.65q-.26-.51-1.68-.51l-1.91,12h-6.93Zm6.21,4.56-.94,5.92a3.4,3.4,0,0,0,1.69-.32c.35-.21.61-.91.8-2.08l.23-1.47c.13-.84.07-1.4-.19-1.66A2.32,2.32,0,0,0,118.49,147.84Z"/><path class="cls-7" d="M138.91,143.28l-4.22,26.64h-6.92L132,143.28Z"/><path class="cls-7" d="M155.22,143.28,155,169.92h-7.08l.39-4.79h-2.48l-1.17,4.79h-7.17l7.76-26.64Zm-6.38,17.13q.18-4.53.71-11.19-2.27,7.65-3.1,11.19Z"/><path class="cls-8" d="M57.64,196.91l6.5-24.25h10l-1.25,4.68H68l-1.26,4.72h4.73l-1.23,4.57H65.51L64,192.19h5.26L68,196.91Z"/><path class="cls-8" d="M70.56,196.91l6.5-24.25h5.17l-.8,11.6,3.11-11.6h4.85l-6.5,24.25H78l.74-12.14-3.25,12.14Z"/><path class="cls-8" d="M95.54,195.47q-1.22-1.66-.43-4.58l3-11.17a11.14,11.14,0,0,1,3-5.45,7.26,7.26,0,0,1,5.16-1.84,5.19,5.19,0,0,1,4.08,1.47q1.31,1.47.56,4.23l-1.12,4.18h-5l1-3.58a2.69,2.69,0,0,0,.13-1.44c-.11-.27-.37-.4-.8-.4a1.26,1.26,0,0,0-1,.45,3.67,3.67,0,0,0-.61,1.33l-3.26,12.17a2.36,2.36,0,0,0-.08,1.39.72.72,0,0,0,.76.44c.78,0,1.33-.61,1.66-1.83l1.17-4.38h5.06L107.46,191q-1.63,6.1-8,6.1A4.54,4.54,0,0,1,95.54,195.47Z"/><path class="cls-8" d="M107.76,196.91l8.92-24.25h8.51l-4.1,24.25h-4.77L117,193h-3l-1.34,3.93Zm7.64-7.8h2.28l2.19-12.33h-.23Z"/><path class="cls-8" d="M124.88,195.49q-1.08-1.63-.1-5.27l.63-2.38h4.94l-.81,3c-.32,1.21-.08,1.81.72,1.81a1.37,1.37,0,0,0,1-.38,2.87,2.87,0,0,0,.61-1.28,5.51,5.51,0,0,0,.23-2,3.16,3.16,0,0,0-.39-1.29,19,19,0,0,0-1.19-1.63L129,184a5.66,5.66,0,0,1-1.11-5.25,9,9,0,0,1,2.74-4.72,7.06,7.06,0,0,1,4.75-1.63q3.39,0,4.41,1.74t0,5.43h-5.12l.42-1.66a.9.9,0,0,0-.07-.77.83.83,0,0,0-.7-.28,1.49,1.49,0,0,0-1,.31,1.58,1.58,0,0,0-.52.85,2.72,2.72,0,0,0,.74,2.46l2.2,2.71A11.23,11.23,0,0,1,137,185a5.36,5.36,0,0,1,.53,2,8.33,8.33,0,0,1-.33,2.78,11.8,11.8,0,0,1-2.82,5.43,6.73,6.73,0,0,1-5,1.85C127.1,197.13,125.6,196.59,124.88,195.49Z"/><path class="cls-8" d="M137.16,196.91l8.92-24.25h8.5l-4.1,24.25h-4.76l.7-3.93h-3L142,196.91Zm7.64-7.8h2.28l2.19-12.33H149Z"/><circle class="cls-9" cx="98.63" cy="87.05" r="47.07"/><path class="cls-10" d="M125.77,63.09l0,49H114.45l0-27.52a10.8,10.8,0,0,0-3.6-8l14.9-13.55Z"/><path class="cls-11" d="M71.92,73.35V63.09H103v5.75h3.16V63.09h19.58l-14.9,13.55a13.05,13.05,0,0,0-8.74-3.29Z"/><rect class="cls-12" x="95.44" y="58.78" width="15.44" height="10.71"/><path class="cls-10" d="M97.46,88.84a8.11,8.11,0,0,0-5.42-2H71.73V75.53h29.31a11.66,11.66,0,0,1,7.82,2.94L97.46,88.84Z"/><path class="cls-13" d="M112.09,85.58l0,26.69H99.66l0-18.51a6.74,6.74,0,0,0-2.22-4.92l11.41-10.37a9.64,9.64,0,0,1,3.22,7.11Z"/><path class="cls-11" d="M92.86,93,71.7,112.23l0-23.39s18.42,0,20,.13a8.22,8.22,0,0,1,3.67,1.68Z"/><path class="cls-10" d="M95.37,90.73,71.7,112.27H97.4V94.49A7.38,7.38,0,0,0,95.37,90.73Z"/><line class="cls-14" x1="58.75" y1="177.29" x2="43.58" y2="177.29"/><line class="cls-14" x1="53.84" y1="190.19" x2="38.68" y2="190.19"/><line class="cls-14" x1="56.54" y1="183.7" x2="32.59" y2="183.7"/><path class="cls-12" d="M42.68,143.28h6.91a17.31,17.31,0,0,1,4.88.51,4,4,0,0,1,2.4,2.06q.78,1.56.24,5a6.18,6.18,0,0,1-1.25,3.26,6.13,6.13,0,0,1-3.11,1.41,4.2,4.2,0,0,1,3,1.8,6.49,6.49,0,0,1,.25,3.86l-.4,2.47a10.88,10.88,0,0,1-1.25,4,4.09,4.09,0,0,1-2.24,1.77,21,21,0,0,1-5.61.48h-8Zm4.61,14.63-1.18,7.45a3.25,3.25,0,0,0,1.94-.46,3.68,3.68,0,0,0,.72-2l.39-2.49c.19-1.14.17-1.83,0-2.07S48.31,157.94,47.29,157.91Zm1.59-10.07-.94,5.92.7,0a1.59,1.59,0,0,0,1.38-.5,8.94,8.94,0,0,0,.73-2.87,4.56,4.56,0,0,0,0-1.75.9.9,0,0,0-.5-.64A5.48,5.48,0,0,0,48.88,147.84Z"/><path class="cls-12" d="M74.81,143.28l-.25,26.64H67.48l.38-4.79H65.38l-1.17,4.79H57.05l7.75-26.64Zm-6.38,17.13q.19-4.53.72-11.19-2.28,7.65-3.11,11.19Z"/><path class="cls-12" d="M93.6,143.28l-.85,5.33H88.64l-3.37,21.31H78.34l3.37-21.31h-4.1l.85-5.33Z"/><path class="cls-12" d="M96.73,143.28h11.55l-.84,5.33h-4.63l-.8,5h4.33l-.8,5.07h-4.33l-.93,5.86h5.09l-.85,5.33h-12Z"/><path class="cls-12" d="M112.28,143.28h4.91a35.62,35.62,0,0,1,6.58.38,3.65,3.65,0,0,1,2.52,1.93q.85,1.56.31,5a8.83,8.83,0,0,1-1.43,4.18,4.86,4.86,0,0,1-3.25,1.29,4.33,4.33,0,0,1,2.55,1.36,3.45,3.45,0,0,1,.63,1.57,25,25,0,0,1-.45,3.94l-1.12,7H117.1l1.4-8.85a5.85,5.85,0,0,0,.08-2.65q-.26-.51-1.68-.51l-1.91,12h-6.93Zm6.21,4.56-.94,5.92a3.4,3.4,0,0,0,1.69-.32c.35-.21.61-.91.8-2.08l.23-1.47c.13-.84.07-1.4-.19-1.66A2.32,2.32,0,0,0,118.49,147.84Z"/><path class="cls-12" d="M138.91,143.28l-4.22,26.64h-6.92L132,143.28Z"/><path class="cls-12" d="M155.22,143.28,155,169.92h-7.08l.39-4.79h-2.48l-1.17,4.79h-7.17l7.76-26.64Zm-6.38,17.13q.18-4.53.71-11.19-2.27,7.65-3.1,11.19Z"/><path class="cls-15" d="M57.64,196.91l6.5-24.25h10l-1.25,4.68H68l-1.26,4.72h4.73l-1.23,4.57H65.51L64,192.19h5.26L68,196.91Z"/><path class="cls-15" d="M70.56,196.91l6.5-24.25h5.17l-.8,11.6,3.11-11.6h4.85l-6.5,24.25H78l.74-12.14-3.25,12.14Z"/><path class="cls-15" d="M95.54,195.47q-1.22-1.66-.43-4.58l3-11.17a11.14,11.14,0,0,1,3-5.45,7.26,7.26,0,0,1,5.16-1.84,5.19,5.19,0,0,1,4.08,1.47q1.31,1.47.56,4.23l-1.12,4.18h-5l1-3.58a2.69,2.69,0,0,0,.13-1.44c-.11-.27-.37-.4-.8-.4a1.26,1.26,0,0,0-1,.45,3.67,3.67,0,0,0-.61,1.33l-3.26,12.17a2.36,2.36,0,0,0-.08,1.39.72.72,0,0,0,.76.44c.78,0,1.33-.61,1.66-1.83l1.17-4.38h5.06L107.46,191q-1.63,6.1-8,6.1A4.54,4.54,0,0,1,95.54,195.47Z"/><path class="cls-15" d="M107.76,196.91l8.92-24.25h8.51l-4.1,24.25h-4.77L117,193h-3l-1.34,3.93Zm7.64-7.8h2.28l2.19-12.33h-.23Z"/><path class="cls-15" d="M124.88,195.49q-1.08-1.63-.1-5.27l.63-2.38h4.94l-.81,3c-.32,1.21-.08,1.81.72,1.81a1.37,1.37,0,0,0,1-.38,2.87,2.87,0,0,0,.61-1.28,5.51,5.51,0,0,0,.23-2,3.16,3.16,0,0,0-.39-1.29,19,19,0,0,0-1.19-1.63L129,184a5.66,5.66,0,0,1-1.11-5.25,9,9,0,0,1,2.74-4.72,7.06,7.06,0,0,1,4.75-1.63q3.39,0,4.41,1.74t0,5.43h-5.12l.42-1.66a.9.9,0,0,0-.07-.77.83.83,0,0,0-.7-.28,1.49,1.49,0,0,0-1,.31,1.58,1.58,0,0,0-.52.85,2.72,2.72,0,0,0,.74,2.46l2.2,2.71A11.23,11.23,0,0,1,137,185a5.36,5.36,0,0,1,.53,2,8.33,8.33,0,0,1-.33,2.78,11.8,11.8,0,0,1-2.82,5.43,6.73,6.73,0,0,1-5,1.85C127.1,197.13,125.6,196.59,124.88,195.49Z"/><path class="cls-15" d="M137.16,196.91l8.92-24.25h8.5l-4.1,24.25h-4.76l.7-3.93h-3L142,196.91Zm7.64-7.8h2.28l2.19-12.33H149Z"/></svg>