<svg xmlns="http://www.w3.org/2000/svg" viewBox="0 0 304.52 371.35"><defs><style>.cls-1,.cls-10{fill:#c0c2dd;}.cls-1,.cls-2,.cls-3,.cls-4,.cls-5,.cls-6,.cls-7,.cls-8,.cls-9{stroke:#fff;}.cls-1,.cls-14,.cls-2,.cls-3,.cls-4,.cls-5,.cls-6,.cls-7,.cls-8{stroke-linecap:round;stroke-linejoin:round;}.cls-1,.cls-2,.cls-3,.cls-4,.cls-5{stroke-width:18.63px;}.cls-1,.cls-10,.cls-11,.cls-13,.cls-2,.cls-4,.cls-5{fill-rule:evenodd;}.cls-11,.cls-12,.cls-2,.cls-3,.cls-7{fill:#001378;}.cls-13,.cls-15,.cls-4,.cls-8{fill:#e10920;}.cls-5{fill:#45403f;}.cls-14,.cls-6,.cls-9{fill:none;}.cls-6{stroke-width:28.84px;}.cls-7,.cls-8{stroke-width:24.84px;}.cls-9{stroke-miterlimit:10;stroke-width:6.21px;}.cls-14{stroke:#dc0b18;stroke-width:9.61px;}</style></defs><g id="Layer_2" data-name="Layer 2"><g id="Capa_1" data-name="Capa 1"><path class="cls-1" d="M225.17,55.42l-.11,111H199.53l.06-62.3a24.44,24.44,0,0,0-8.16-18l33.74-30.69Z"/><path class="cls-2" d="M103.23,78.66l0-23.24h70.41v13h7.17v-13h44.34l-33.74,30.7a29.46,29.46,0,0,0-19.79-7.46Z"/><rect class="cls-3" x="156.51" y="45.66" width="34.95" height="24.25"/><path class="cls-1" d="M161.06,113.73a18.31,18.31,0,0,0-12.25-4.59h-46l0-25.56H169.2a26.47,26.47,0,0,1,17.7,6.66l-25.84,23.49Z"/><path class="cls-4" d="M194.18,106.35l-.05,60.43H166.05l0-41.9a15.16,15.16,0,0,0-5-11.15L186.9,90.24a21.82,21.82,0,0,1,7.28,16.11Z"/><path class="cls-5" d="M161,128.27l0,38.51H102.74l9.77-8.9h18.08v-12a4.39,4.39,0,0,0-1.4-3.14l1.48-1.34a4.71,4.71,0,0,1,1.53,3.44v13.08H141l0-18.9a6.77,6.77,0,0,0-2.23-5l1.44-1.3a7.69,7.69,0,0,1,2.48,5.58l0,19.47h8l0-34.59,5.68-5.16A13.92,13.92,0,0,1,161,128.27Z"/><path class="cls-2" d="M150.66,123.11,102.74,166.7l.06-53s41.69.12,45.35.29,8.3,3.82,8.3,3.82Z"/><path class="cls-1" d="M156.33,118l-53.59,48.76h58.18l0-40.26S159.84,120.89,156.33,118Z"/><line class="cls-6" x1="73.65" y1="314" x2="39.32" y2="314"/><line class="cls-6" x1="62.55" y1="343.22" x2="28.22" y2="343.22"/><line class="cls-6" x1="68.66" y1="328.51" x2="14.42" y2="328.51"/><path class="cls-7" d="M37.27,237H52.92q7.41,0,11,1.16a9,9,0,0,1,5.43,4.67q1.78,3.51.55,11.34-.84,5.28-2.83,7.37t-7,3.2c3.49.82,5.74,2.18,6.73,4.08s1.17,4.82.55,8.75l-.89,5.59c-.64,4.08-1.59,7.1-2.83,9.06a9.43,9.43,0,0,1-5.09,4q-3.22,1.08-12.69,1.08H27.71Zm10.44,33.13L45,287c2.22-.08,3.68-.43,4.39-1.05s1.25-2.15,1.64-4.58l.89-5.63q.61-3.87-.08-4.69T47.71,270.12Zm3.61-22.81L49.2,260.73c.67,0,1.19,0,1.57,0q2.31,0,3.12-1.14c.54-.75,1.1-2.92,1.66-6.5a10.16,10.16,0,0,0,.11-4,2,2,0,0,0-1.13-1.43A11.6,11.6,0,0,0,51.32,247.31Z"/><path class="cls-7" d="M110,237l-.59,60.33h-16l.88-10.85H88.69L86,297.32H69.81L87.37,237ZM95.58,275.78q.44-10.25,1.62-25.34-5.13,17.32-7,25.34Z"/><path class="cls-7" d="M152.57,237l-1.91,12.07h-9.32l-7.64,48.26H118l7.65-48.26h-9.28L118.29,237Z"/><path class="cls-7" d="M159.66,237h26.16l-1.92,12.07H173.43l-1.81,11.44h9.8L179.6,272h-9.8l-2.1,13.27h11.52l-1.92,12.07H150.1Z"/><path class="cls-7" d="M194.88,237H206q11.1,0,14.9.86a8.37,8.37,0,0,1,5.72,4.38q1.92,3.51.69,11.23-1.11,7.05-3.25,9.47t-7.35,2.9c3,.77,4.91,1.8,5.77,3.09a7.81,7.81,0,0,1,1.43,3.56,57,57,0,0,1-1,8.93l-2.52,15.91H205.78L209,277.27q.76-4.84.18-6c-.39-.77-1.66-1.15-3.82-1.15L201,297.32H185.32Zm14.05,10.32-2.12,13.42a7.63,7.63,0,0,0,3.82-.73c.78-.48,1.39-2.05,1.81-4.71L213,252c.3-1.91.16-3.17-.43-3.76S210.74,247.31,208.93,247.31Z"/><path class="cls-7" d="M255.17,237l-9.55,60.33H229.93L239.49,237Z"/><path class="cls-7" d="M292.1,237l-.59,60.33h-16l.88-10.85h-5.61l-2.66,10.85H251.87L269.43,237Zm-14.46,38.79q.44-10.25,1.62-25.34-5.13,17.32-7,25.34Z"/><path class="cls-8" d="M71.16,358.42l14.71-54.9h22.76l-2.84,10.6H94.61L91.75,324.8h10.72l-2.78,10.35H89L85.6,347.74H97.51l-2.86,10.68Z"/><path class="cls-8" d="M100.4,358.42l14.72-54.9h11.71L125,329.78l7-26.26h11l-14.71,54.9H117.21l1.68-27.49-7.37,27.49Z"/><path class="cls-8" d="M157,355.16q-2.73-3.78-1-10.36l6.78-25.31q2.19-8.17,6.68-12.33t11.7-4.16q6.28,0,9.24,3.33t1.27,9.58l-2.54,9.46H177.81l2.17-8.11a6,6,0,0,0,.28-3.26c-.24-.6-.84-.9-1.81-.9a2.88,2.88,0,0,0-2.36,1,8.21,8.21,0,0,0-1.37,3l-7.38,27.54a5.5,5.5,0,0,0-.19,3.17,1.66,1.66,0,0,0,1.72,1c1.77,0,3-1.38,3.77-4.16l2.65-9.9h11.44L184,345.12q-3.69,13.81-18.06,13.81C161.76,358.93,158.77,357.67,157,355.16Z"/><path class="cls-8" d="M184.63,358.42l20.21-54.9h19.25l-9.28,54.9H204l1.59-8.89h-6.88l-3,8.89Zm17.3-17.64h5.16l5-27.93h-.53Z"/><path class="cls-8" d="M223.4,355.22q-2.44-3.71-.24-12l1.44-5.37h11.18L234,344.74q-1.09,4.1,1.62,4.09a3.13,3.13,0,0,0,2.35-.86,6.79,6.79,0,0,0,1.37-2.91,12.46,12.46,0,0,0,.53-4.44,7.22,7.22,0,0,0-.9-2.94,38.54,38.54,0,0,0-2.69-3.68l-3.63-4.73a12.85,12.85,0,0,1-2.5-11.89c1.26-4.68,3.32-8.25,6.21-10.7A16,16,0,0,1,247.05,303q7.68,0,10,3.93t.08,12.31H245.55l.94-3.77a2,2,0,0,0-.16-1.73,1.84,1.84,0,0,0-1.58-.64,3.35,3.35,0,0,0-2.18.7,3.57,3.57,0,0,0-1.17,1.92c-.48,1.79.08,3.65,1.68,5.56l5,6.14a25.63,25.63,0,0,1,2.73,4.12,12.2,12.2,0,0,1,1.21,4.6,18.76,18.76,0,0,1-.76,6.3q-2.18,8.12-6.37,12.3t-11.28,4.19Q225.85,358.93,223.4,355.22Z"/><path class="cls-8" d="M251.2,358.42l20.2-54.9h19.25l-9.28,54.9H270.58l1.59-8.89h-6.88l-3,8.89Zm17.29-17.64h5.17l5-27.93h-.52Z"/><circle class="cls-9" cx="163.96" cy="109.68" r="106.57"/><path class="cls-10" d="M225.41,55.42l-.11,111H199.77l.06-62.3a24.44,24.44,0,0,0-8.16-18l33.74-30.69Z"/><path class="cls-11" d="M103.48,78.66l0-23.24h70.41l0,13h7.18v-13h44.33l-33.74,30.7a29.46,29.46,0,0,0-19.78-7.46Z"/><rect class="cls-12" x="156.75" y="45.66" width="34.95" height="24.25"/><path class="cls-10" d="M161.3,113.73a18.29,18.29,0,0,0-12.25-4.59H103l0-25.56h66.37a26.45,26.45,0,0,1,17.7,6.66L161.3,113.73Z"/><path class="cls-13" d="M194.43,106.35l-.06,60.43H166.29l.05-41.9a15.21,15.21,0,0,0-5-11.15l25.84-23.49a21.87,21.87,0,0,1,7.29,16.11Z"/><path class="cls-11" d="M150.9,123.11,103,166.7l.05-53s41.7.12,45.35.29,8.3,3.82,8.3,3.82Z"/><path class="cls-10" d="M156.58,118c-1,.89-53.59,48.76-53.59,48.76h58.18l0-40.26S160.09,120.89,156.58,118Z"/><line class="cls-14" x1="73.65" y1="314" x2="39.32" y2="314"/><line class="cls-14" x1="62.55" y1="343.22" x2="28.22" y2="343.22"/><line class="cls-14" x1="68.66" y1="328.51" x2="14.42" y2="328.51"/><path class="cls-12" d="M37.27,237H52.92q7.41,0,11,1.16a9,9,0,0,1,5.43,4.67q1.78,3.51.55,11.34-.84,5.28-2.83,7.37t-7,3.2c3.49.82,5.74,2.18,6.73,4.08s1.17,4.82.55,8.75l-.89,5.59c-.64,4.08-1.59,7.1-2.83,9.06a9.43,9.43,0,0,1-5.09,4q-3.22,1.08-12.69,1.08H27.71Zm10.44,33.13L45,287c2.22-.08,3.68-.43,4.39-1.05s1.25-2.15,1.64-4.58l.89-5.63q.61-3.87-.08-4.69T47.71,270.12Zm3.61-22.81L49.2,260.73c.67,0,1.19,0,1.57,0q2.31,0,3.12-1.14c.54-.75,1.1-2.92,1.66-6.5a10.16,10.16,0,0,0,.11-4,2,2,0,0,0-1.13-1.43A11.6,11.6,0,0,0,51.32,247.31Z"/><path class="cls-12" d="M110,237l-.59,60.33h-16l.88-10.85H88.69L86,297.32H69.81L87.37,237ZM95.58,275.78q.44-10.25,1.62-25.34-5.13,17.32-7,25.34Z"/><path class="cls-12" d="M152.57,237l-1.91,12.07h-9.32l-7.64,48.26H118l7.65-48.26h-9.28L118.29,237Z"/><path class="cls-12" d="M159.66,237h26.16l-1.92,12.07H173.43l-1.81,11.44h9.8L179.6,272h-9.8l-2.1,13.27h11.52l-1.92,12.07H150.1Z"/><path class="cls-12" d="M194.88,237H206q11.1,0,14.9.86a8.37,8.37,0,0,1,5.72,4.38q1.92,3.51.69,11.23-1.11,7.05-3.25,9.47t-7.35,2.9c3,.77,4.91,1.8,5.77,3.09a7.81,7.81,0,0,1,1.43,3.56,57,57,0,0,1-1,8.93l-2.52,15.91H205.78L209,277.27q.76-4.84.18-6c-.39-.77-1.66-1.15-3.82-1.15L201,297.32H185.32Zm14.05,10.32-2.12,13.42a7.63,7.63,0,0,0,3.82-.73c.78-.48,1.39-2.05,1.81-4.71L213,252c.3-1.91.16-3.17-.43-3.76S210.74,247.31,208.93,247.31Z"/><path class="cls-12" d="M255.17,237l-9.55,60.33H229.93L239.49,237Z"/><path class="cls-12" d="M292.1,237l-.59,60.33h-16l.88-10.85h-5.61l-2.66,10.85H251.87L269.43,237Zm-14.46,38.79q.44-10.25,1.62-25.34-5.13,17.32-7,25.34Z"/><path class="cls-15" d="M71.16,358.42l14.71-54.9h22.76l-2.84,10.6H94.61L91.75,324.8h10.72l-2.78,10.35H89L85.6,347.74H97.51l-2.86,10.68Z"/><path class="cls-15" d="M100.4,358.42l14.72-54.9h11.71L125,329.78l7-26.26h11l-14.71,54.9H117.21l1.68-27.49-7.37,27.49Z"/><path class="cls-15" d="M157,355.16q-2.73-3.78-1-10.36l6.78-25.31q2.19-8.17,6.68-12.33t11.7-4.16q6.28,0,9.24,3.33t1.27,9.58l-2.54,9.46H177.81l2.17-8.11a6,6,0,0,0,.28-3.26c-.24-.6-.84-.9-1.81-.9a2.88,2.88,0,0,0-2.36,1,8.21,8.21,0,0,0-1.37,3l-7.38,27.54a5.5,5.5,0,0,0-.19,3.17,1.66,1.66,0,0,0,1.72,1c1.77,0,3-1.38,3.77-4.16l2.65-9.9h11.44L184,345.12q-3.69,13.81-18.06,13.81C161.76,358.93,158.77,357.67,157,355.16Z"/><path class="cls-15" d="M184.63,358.42l20.21-54.9h19.25l-9.28,54.9H204l1.59-8.89h-6.88l-3,8.89Zm17.3-17.64h5.16l5-27.93h-.53Z"/><path class="cls-15" d="M223.4,355.22q-2.44-3.71-.24-12l1.44-5.37h11.18L234,344.74q-1.09,4.1,1.62,4.09a3.13,3.13,0,0,0,2.35-.86,6.79,6.79,0,0,0,1.37-2.91,12.46,12.46,0,0,0,.53-4.44,7.22,7.22,0,0,0-.9-2.94,38.54,38.54,0,0,0-2.69-3.68l-3.63-4.73a12.85,12.85,0,0,1-2.5-11.89c1.26-4.68,3.32-8.25,6.21-10.7A16,16,0,0,1,247.05,303q7.68,0,10,3.93t.08,12.31H245.55l.94-3.77a2,2,0,0,0-.16-1.73,1.84,1.84,0,0,0-1.58-.64,3.35,3.35,0,0,0-2.18.7,3.57,3.57,0,0,0-1.17,1.92c-.48,1.79.08,3.65,1.68,5.56l5,6.14a25.63,25.63,0,0,1,2.73,4.12,12.2,12.2,0,0,1,1.21,4.6,18.76,18.76,0,0,1-.76,6.3q-2.18,8.12-6.37,12.3t-11.28,4.19Q225.85,358.93,223.4,355.22Z"/><path class="cls-15" d="M251.2,358.42l20.2-54.9h19.25l-9.28,54.9H270.58l1.59-8.89h-6.88l-3,8.89Zm17.29-17.64h5.17l5-27.93h-.52Z"/></g></g></svg>